<?xml version="1.0" encoding="UTF-8" standalone="no"?>
<svg
   width="512"
   height="512"
   viewBox="0 0 512 512"
   version="1.1"
   id="svg4"
   xmlns="http://www.w3.org/2000/svg"
   xmlns:svg="http://www.w3.org/2000/svg">
  <defs
     id="defs8" />
  <g
     id="g868">
    <path
       style="fill:#4796e7;fill-opacity:1;stroke-width:25.6"
       d="m 274.17054,7.4299543 a -25.6,-25.6 0 0 0 -8.448,-5.376 -24.064,-24.064 0 0 0 -19.456,0 -25.6,-25.6 0 0 0 -8.448,5.376 l -102.4,102.3999957 a -25.704746,-25.704746 0 0 0 36.352,36.352 l 58.624,-58.879996 V 332.80595 a -25.6,-25.6 0 0 0 51.2,0 V 87.301954 l 58.624,58.879996 a -25.704746,-25.704746 0 1 0 36.352,-36.352 z"
       id="path846" />
    <path
       style="stroke-width:25.6;fill:#4796e7;fill-opacity:1"
       d="m 486.4,307.2 a 25.6,25.6 0 0 0 -25.6,25.6 v 102.4 a 25.6,25.6 0 0 1 -25.6,25.6 H 76.8 A 25.6,25.6 0 0 1 51.2,435.2 V 332.8 A 25.6,25.6 0 0 0 0,332.8 V 435.2 A 76.8,76.8 0 0 0 76.8,512 H 435.2 A 76.8,76.8 0 0 0 512,435.2 V 332.8 a 25.6,25.6 0 0 0 -25.6,-25.6 z"
       id="path2" />
  </g>
</svg>
