<?xml version="1.0" encoding="UTF-8" standalone="no"?>
<!-- Generator: Adobe Illustrator 19.0.0, SVG Export Plug-In . SVG Version: 6.00 Build 0)  -->

<svg
   version="1.1"
   id="Layer_1"
   x="0px"
   y="0px"
   viewBox="0 0 495.12 495.12"
   xml:space="preserve"
   width="495.12"
   height="495.12"
   xmlns="http://www.w3.org/2000/svg"
   xmlns:svg="http://www.w3.org/2000/svg"><defs
   id="defs49" />
<g
   id="g870"
   transform="translate(-8.44,-8.44)"
   style="stroke:none;fill:#4796e7;fill-opacity:1"><g
     id="g8"
     style="stroke:none;fill:#4796e7;fill-opacity:1">
	<path
   style="fill:#4796e7;stroke:none;fill-opacity:1"
   d="m 75.956,503.56 c -37.229,0 -67.516,-30.288 -67.516,-67.516 0,-37.228 30.288,-67.516 67.516,-67.516 37.228,0 67.516,30.288 67.516,67.516 0,37.228 -30.287,67.516 -67.516,67.516 z"
   id="path2" />
	<path
   style="fill:#4796e7;stroke:none;fill-opacity:1"
   d="M 289.758,469.802 C 271.114,469.802 256,454.687 256,436.044 256,336.768 175.233,256 75.956,256 57.312,256 42.198,240.885 42.198,222.242 c 0,-18.643 15.115,-33.758 33.758,-33.758 66.127,0 128.294,25.751 175.051,72.509 46.759,46.757 72.509,108.925 72.509,175.051 10e-4,18.644 -15.114,33.758 -33.758,33.758 z"
   id="path4" />
	<path
   style="fill:#4796e7;stroke:none;fill-opacity:1"
   d="m 469.802,469.802 c -18.644,0 -33.758,-15.115 -33.758,-33.758 C 436.044,237.49 274.509,75.956 75.956,75.956 57.312,75.956 42.198,60.841 42.198,42.198 42.198,23.555 57.312,8.44 75.956,8.44 c 57.711,0 113.715,11.31 166.453,33.618 50.923,21.539 96.65,52.366 135.908,91.626 39.261,39.26 70.087,84.985 91.625,135.908 22.306,52.738 33.618,108.741 33.618,166.453 0,18.643 -15.114,33.757 -33.758,33.757 z"
   id="path6" />
</g></g>



<g
   id="g16"
   transform="translate(-8.44,-8.44)"
   style="stroke:none;fill:#4796e7;fill-opacity:1">
</g>
<g
   id="g18"
   transform="translate(-8.44,-8.44)"
   style="stroke:none;fill:#4796e7;fill-opacity:1">
</g>
<g
   id="g20"
   transform="translate(-8.44,-8.44)"
   style="stroke:none;fill:#4796e7;fill-opacity:1">
</g>
<g
   id="g22"
   transform="translate(-8.44,-8.44)"
   style="stroke:none;fill:#4796e7;fill-opacity:1">
</g>
<g
   id="g24"
   transform="translate(-8.44,-8.44)"
   style="stroke:none;fill:#4796e7;fill-opacity:1">
</g>
<g
   id="g26"
   transform="translate(-8.44,-8.44)"
   style="stroke:none;fill:#4796e7;fill-opacity:1">
</g>
<g
   id="g28"
   transform="translate(-8.44,-8.44)"
   style="stroke:none;fill:#4796e7;fill-opacity:1">
</g>
<g
   id="g30"
   transform="translate(-8.44,-8.44)"
   style="stroke:none;fill:#4796e7;fill-opacity:1">
</g>
<g
   id="g32"
   transform="translate(-8.44,-8.44)"
   style="stroke:none;fill:#4796e7;fill-opacity:1">
</g>
<g
   id="g34"
   transform="translate(-8.44,-8.44)"
   style="stroke:none;fill:#4796e7;fill-opacity:1">
</g>
<g
   id="g36"
   transform="translate(-8.44,-8.44)"
   style="stroke:none;fill:#4796e7;fill-opacity:1">
</g>
<g
   id="g38"
   transform="translate(-8.44,-8.44)"
   style="stroke:none;fill:#4796e7;fill-opacity:1">
</g>
<g
   id="g40"
   transform="translate(-8.44,-8.44)"
   style="stroke:none;fill:#4796e7;fill-opacity:1">
</g>
<g
   id="g42"
   transform="translate(-8.44,-8.44)"
   style="stroke:none;fill:#4796e7;fill-opacity:1">
</g>
<g
   id="g44"
   transform="translate(-8.44,-8.44)"
   style="stroke:none;fill:#4796e7;fill-opacity:1">
</g>
</svg>
