<?xml version="1.0" encoding="UTF-8" standalone="no"?>
<!-- Generator: Adobe Illustrator 19.0.0, SVG Export Plug-In . SVG Version: 6.00 Build 0)  -->

<svg
   version="1.1"
   id="Layer_1"
   x="0px"
   y="0px"
   viewBox="0 0 512.00167 363.11177"
   xml:space="preserve"
   width="512.00165"
   height="363.11176"
   xmlns="http://www.w3.org/2000/svg"
   xmlns:svg="http://www.w3.org/2000/svg"><defs
   id="defs39" />
<path
   style="fill:#4796e7;fill-opacity:1"
   d="m 330.08175,107.47475 c -40.913,-40.913 -107.248,-40.913 -148.161,0 -40.913,40.913 -40.913,107.248 0,148.161 40.913,40.913 107.248,40.913 148.161,0 l -74.081,-74.08 z"
   id="path2" />
<path
   style="fill:#2a6eb2;fill-opacity:1"
   d="m 509.50775,173.58875 c -2.023,-2.914 -46.086,-65.747 -113.359,-112.425 l 37.318,-37.318 c 5.455,-5.455 5.455,-14.3 0,-19.756 -5.456,-5.453 -14.298,-5.453 -19.756,0 l -41.722,41.722 c -39.274,-22.751 -78.281,-34.316 -115.988,-34.316 -58.135,0 -120.528,28.211 -180.435,81.585 -44.524,39.668 -71.927,78.861 -73.072,80.509 -3.325,4.79 -3.325,11.141 0,15.931 1.144,1.65 28.548,40.84 73.072,80.509 13.343,11.887 26.81,22.519 40.326,31.878 l -37.357,37.357 c -5.455,5.455 -5.455,14.3 0,19.756 2.728,2.727 6.303,4.091 9.877,4.091 3.575,0 7.149,-1.365 9.877,-4.091 l 41.778,-41.778 c 39.209,22.631 78.454,34.373 115.931,34.373 57.733,0 119.715,-27.845 179.242,-80.526 5.777,-5.113 6.315,-13.941 1.203,-19.718 -5.11,-5.776 -13.939,-6.315 -19.717,-1.203 -37.894,33.535 -96.538,73.511 -160.729,73.511 -33.837,0 -66.209,-10.946 -95.444,-26.922 l 21.964,-21.964 c 21.469,16.943 47.466,25.444 73.48,25.444 30.406,0 60.81,-11.573 83.958,-34.721 5.455,-5.455 5.455,-14.3 0,-19.756 l -64.203,-64.203 64.203,-64.203 36.077,-36.077 c 65.446,44.092 110.047,107.566 110.52,108.247 4.399,6.339 13.104,7.906 19.442,3.509 6.341,-4.403 7.912,-13.107 3.514,-19.445 z m -478.144,7.958 c 23.839,-31.063 116.646,-142.114 224.637,-142.114 30.691,0 62.766,9.059 95.477,26.891 l -21.997,21.995 c -46.562,-36.748 -114.485,-33.673 -157.439,9.278 -42.95,42.951 -46.023,110.877 -9.277,157.438 l -26.742,26.742 c -51.744,-34.892 -90.45,-81.748 -104.659,-100.23 z m 278.206,73.331 c -31.776,23.245 -75.348,23.223 -107.121,-0.015 l 53.552,-53.553 z m -63.446,-83.201 -63.442,63.442 c -25.964,-35.495 -22.927,-85.725 9.116,-117.768 17.701,-17.701 40.951,-26.552 64.203,-26.552 18.84,0 37.681,5.81 53.567,17.432 z"
   id="path4" />
<g
   id="g6"
   transform="translate(7.5e-4,-74.44425)">
</g>
<g
   id="g8"
   transform="translate(7.5e-4,-74.44425)">
</g>
<g
   id="g10"
   transform="translate(7.5e-4,-74.44425)">
</g>
<g
   id="g12"
   transform="translate(7.5e-4,-74.44425)">
</g>
<g
   id="g14"
   transform="translate(7.5e-4,-74.44425)">
</g>
<g
   id="g16"
   transform="translate(7.5e-4,-74.44425)">
</g>
<g
   id="g18"
   transform="translate(7.5e-4,-74.44425)">
</g>
<g
   id="g20"
   transform="translate(7.5e-4,-74.44425)">
</g>
<g
   id="g22"
   transform="translate(7.5e-4,-74.44425)">
</g>
<g
   id="g24"
   transform="translate(7.5e-4,-74.44425)">
</g>
<g
   id="g26"
   transform="translate(7.5e-4,-74.44425)">
</g>
<g
   id="g28"
   transform="translate(7.5e-4,-74.44425)">
</g>
<g
   id="g30"
   transform="translate(7.5e-4,-74.44425)">
</g>
<g
   id="g32"
   transform="translate(7.5e-4,-74.44425)">
</g>
<g
   id="g34"
   transform="translate(7.5e-4,-74.44425)">
</g>
</svg>
