<?xml version="1.0" encoding="UTF-8" standalone="no"?>
<svg
   width="512"
   height="512"
   viewBox="0 0 512 512"
   version="1.1"
   id="svg4"
   xmlns="http://www.w3.org/2000/svg"
   xmlns:svg="http://www.w3.org/2000/svg">
  <defs
     id="defs8" />
  <path
     d="m 486.4,307.2 a 25.6,25.6 0 0 0 -25.6,25.6 v 102.4 a 25.6,25.6 0 0 1 -25.6,25.6 H 76.8 A 25.6,25.6 0 0 1 51.2,435.2 V 332.8 A 25.6,25.6 0 0 0 0,332.8 V 435.2 A 76.8,76.8 0 0 0 76.8,512 H 435.2 A 76.8,76.8 0 0 0 512,435.2 V 332.8 a 25.6,25.6 0 0 0 -25.6,-25.6 z m -248.576,43.776 a 25.6,25.6 0 0 0 8.448,5.376 24.064,24.064 0 0 0 19.456,0 25.6,25.6 0 0 0 8.448,-5.376 l 102.4,-102.4 A 25.704746,25.704746 0 0 0 340.224,212.224 L 281.6,271.104 V 25.6 a 25.6,25.6 0 0 0 -51.2,0 v 245.504 l -58.624,-58.88 a 25.704746,25.704746 0 1 0 -36.352,36.352 z"
     id="path2"
     style="stroke-width:25.6;fill:#4796e7;fill-opacity:1" />
</svg>
