<?xml version="1.0" encoding="UTF-8" standalone="no"?>
<svg
   width="512"
   height="419.38727"
   viewBox="0 0 512 419.38727"
   class="icon"
   version="1.1"
   id="svg4"
   xmlns="http://www.w3.org/2000/svg"
   xmlns:svg="http://www.w3.org/2000/svg">
  <defs
     id="defs8" />
  <g
     id="g849"
     transform="translate(0,15.535817)">
    <g
       id="g1052"
       transform="matrix(-1,0,0,-1.324013,512,519.16874)">
      <path
         style="fill:#4796e7;fill-opacity:1;stroke-width:0.695652"
         d="M 506.43478,350.98187 H 5.5652189 c -3.06087,0 -5.5652200000001,2.50435 -5.5652200000001,5.56522 v 41.73913 c 0,3.06087 2.5043500000001,5.56522 5.5652200000001,5.56522 H 506.43478 c 3.06087,0 5.56522,-2.50435 5.56522,-5.56522 v -41.73913 c 0,-3.06087 -2.50435,-5.56522 -5.56522,-5.56522 z"
         id="path2" />
    </g>
    <g
       id="g4"
       transform="matrix(1.0513347,0,0,1.0513347,0,-7.64096)"
       style="fill:#4796e7;fill-opacity:1">
      <path
         d="m 397.7,376.1 c 20.4,20.4 53.6,20.4 74,0 20.4,-20.4 20.4,-53.6 0,-74 L 280.5,110.9 c -20.4,-20.4 -53.6,-20.4 -74,0 L 15.3,302.1 c -20.4,20.4 -20.4,53.6 0,74 20.4,20.4 53.6,20.4 74,0 L 243.5,221.9 Z"
         id="path2-3"
         style="fill:#4796e7;fill-opacity:1" />
    </g>
  </g>
  <g
     id="g6"
     transform="translate(0,-80.064179)" />
  <g
     id="g8"
     transform="translate(0,-80.064179)" />
  <g
     id="g10"
     transform="translate(0,-80.064179)" />
  <g
     id="g12"
     transform="translate(0,-80.064179)" />
  <g
     id="g14"
     transform="translate(0,-80.064179)" />
  <g
     id="g16"
     transform="translate(0,-80.064179)" />
  <g
     id="g18"
     transform="translate(0,-80.064179)" />
  <g
     id="g20"
     transform="translate(0,-80.064179)" />
  <g
     id="g22"
     transform="translate(0,-80.064179)" />
  <g
     id="g24"
     transform="translate(0,-80.064179)" />
  <g
     id="g26"
     transform="translate(0,-80.064179)" />
  <g
     id="g28"
     transform="translate(0,-80.064179)" />
  <g
     id="g30"
     transform="translate(0,-80.064179)" />
  <g
     id="g32"
     transform="translate(0,-80.064179)" />
  <g
     id="g34"
     transform="translate(0,-80.064179)" />
</svg>
