<?xml version="1.0" encoding="UTF-8" standalone="no"?>
<!-- Generator: Adobe Illustrator 19.0.0, SVG Export Plug-In . SVG Version: 6.00 Build 0)  -->

<svg
   version="1.1"
   id="Capa_1"
   x="0px"
   y="0px"
   viewBox="0 0 512 310.9848"
   xml:space="preserve"
   width="512"
   height="310.9848"
   xmlns="http://www.w3.org/2000/svg"
   xmlns:svg="http://www.w3.org/2000/svg"><defs
   id="defs39" />
<g
   id="g4"
   transform="matrix(1.0513347,0,0,1.0513347,0,-100.5076)"
   style="fill:#4796e7;fill-opacity:1">
	<path
   d="m 397.7,376.1 c 20.4,20.4 53.6,20.4 74,0 20.4,-20.4 20.4,-53.6 0,-74 L 280.5,110.9 c -20.4,-20.4 -53.6,-20.4 -74,0 L 15.3,302.1 c -20.4,20.4 -20.4,53.6 0,74 20.4,20.4 53.6,20.4 74,0 L 243.5,221.9 Z"
   id="path2"
   style="fill:#4796e7;fill-opacity:1" />
</g>
<g
   id="g6"
   transform="translate(0,-95.6)">
</g>
<g
   id="g8"
   transform="translate(0,-95.6)">
</g>
<g
   id="g10"
   transform="translate(0,-95.6)">
</g>
<g
   id="g12"
   transform="translate(0,-95.6)">
</g>
<g
   id="g14"
   transform="translate(0,-95.6)">
</g>
<g
   id="g16"
   transform="translate(0,-95.6)">
</g>
<g
   id="g18"
   transform="translate(0,-95.6)">
</g>
<g
   id="g20"
   transform="translate(0,-95.6)">
</g>
<g
   id="g22"
   transform="translate(0,-95.6)">
</g>
<g
   id="g24"
   transform="translate(0,-95.6)">
</g>
<g
   id="g26"
   transform="translate(0,-95.6)">
</g>
<g
   id="g28"
   transform="translate(0,-95.6)">
</g>
<g
   id="g30"
   transform="translate(0,-95.6)">
</g>
<g
   id="g32"
   transform="translate(0,-95.6)">
</g>
<g
   id="g34"
   transform="translate(0,-95.6)">
</g>
</svg>
