<?xml version="1.0" encoding="UTF-8" standalone="no"?>
<!-- Generator: Adobe Illustrator 18.0.0, SVG Export Plug-In . SVG Version: 6.00 Build 0)  -->

<svg
   version="1.1"
   id="Capa_1"
   x="0px"
   y="0px"
   viewBox="0 0 512 512.00281"
   xml:space="preserve"
   width="512"
   height="512.00281"
   xmlns="http://www.w3.org/2000/svg"
   xmlns:svg="http://www.w3.org/2000/svg"><defs
   id="defs37" />
<path
   d="m 486.81004,259.73091 c -13.91326,0 -25.18997,11.27671 -25.18997,25.18997 V 425.99587 L 86.004133,50.379927 H 227.07912 c 13.91326,0 25.18997,-11.276707 25.18997,-25.189964 C 252.26909,11.276707 240.99238,0 227.07912,0 H 25.189963 C 11.279506,0 0,11.276707 0,25.189963 V 227.07912 c 0,13.91326 11.276707,25.18997 25.189963,25.18997 13.913257,0 25.189964,-11.27671 25.189964,-25.18997 V 86.006932 L 425.99587,461.62287 H 284.92088 c -13.91326,0 -25.18997,11.27671 -25.18997,25.18997 0,13.91325 11.27671,25.18996 25.18997,25.18996 H 486.81004 C 500.72329,512.0028 512,500.72609 512,486.81284 V 284.92368 c 0,-13.91326 -11.27671,-25.19277 -25.18996,-25.19277 z"
   id="path2"
   style="stroke-width:2.79888;fill:#4796e7;fill-opacity:1" />
<g
   id="g4">
</g>
<g
   id="g6">
</g>
<g
   id="g8">
</g>
<g
   id="g10">
</g>
<g
   id="g12">
</g>
<g
   id="g14">
</g>
<g
   id="g16">
</g>
<g
   id="g18">
</g>
<g
   id="g20">
</g>
<g
   id="g22">
</g>
<g
   id="g24">
</g>
<g
   id="g26">
</g>
<g
   id="g28">
</g>
<g
   id="g30">
</g>
<g
   id="g32">
</g>
</svg>
